<?xml version="1.0" encoding="UTF-8" standalone="no"?>
<svg
   xmlns:dc="http://purl.org/dc/elements/1.1/"
   xmlns:cc="http://creativecommons.org/ns#"
   xmlns:rdf="http://www.w3.org/1999/02/22-rdf-syntax-ns#"
   xmlns:svg="http://www.w3.org/2000/svg"
   xmlns="http://www.w3.org/2000/svg"
   xmlns:sodipodi="http://sodipodi.sourceforge.net/DTD/sodipodi-0.dtd"
   xmlns:inkscape="http://www.inkscape.org/namespaces/inkscape"
   viewBox="0 0 320 512"
   version="1.1"
   id="svg22"
   sodipodi:docname="sort - copia.svg"
   inkscape:version="1.0.2-2 (e86c870879, 2021-01-15)">
  <metadata
     id="metadata28">
    <rdf:RDF>
      <cc:Work
         rdf:about="">
        <dc:format>image/svg+xml</dc:format>
        <dc:type
           rdf:resource="http://purl.org/dc/dcmitype/StillImage" />
      </cc:Work>
    </rdf:RDF>
  </metadata>
  <defs
     id="defs26" />
  <sodipodi:namedview
     pagecolor="#ffffff"
     bordercolor="#666666"
     borderopacity="1"
     objecttolerance="10"
     gridtolerance="10"
     guidetolerance="10"
     inkscape:pageopacity="0"
     inkscape:pageshadow="2"
     inkscape:window-width="1920"
     inkscape:window-height="1017"
     id="namedview24"
     showgrid="false"
     inkscape:zoom="1.6152344"
     inkscape:cx="160"
     inkscape:cy="256"
     inkscape:window-x="1358"
     inkscape:window-y="-8"
     inkscape:window-maximized="1"
     inkscape:current-layer="svg22" />
  <path
     d="M41 288h238c21.4 0 32.1 25.9 17 41L177 448c-9.4 9.4-24.6 9.4-33.9 0L24 329c-15.1-15.1-4.4-41 17-41zm255-105L177 64c-9.4-9.4-24.6-9.4-33.9 0L24 183c-15.1 15.1-4.4 41 17 41h238c21.4 0 32.1-25.9 17-41z"
     id="path20" />
  <path
     style="fill:#ffffff;stroke-width:0.619105"
     d="M 34.955759,222.81791 C 20.923873,219.03122 13.493641,203.24922 19.507697,190.00582 20.633075,187.52765 32.274123,175.56077 82.85917,124.8811 116.94419,90.732336 146.08561,61.989813 147.6179,61.008829 c 6.26668,-4.01199 13.80503,-4.677017 21.35913,-1.884281 3.59102,1.327594 5.81815,3.477568 66.9282,64.609262 67.71096,67.73494 65.27726,65.07753 66.50447,72.61784 1.65715,10.18188 -4.98166,21.77559 -14.72132,25.70863 l -3.55779,1.4367 -122.89238,0.11789 c -106.727663,0.10238 -123.338297,-0.002 -126.282451,-0.79696 z"
     id="path30" />
  <path
     style="fill:#ffffff;stroke-width:0.619105"
     d="m 153.13347,453.55871 c -1.90381,-0.60911 -4.68978,-1.96585 -6.19105,-3.01497 -1.50129,-1.04911 -30.47803,-29.71884 -64.392778,-63.7105 -66.172928,-66.32299 -63.727162,-63.63818 -64.98775,-71.33966 -1.650661,-10.08461 5.007446,-21.61976 14.749729,-25.55386 l 3.557786,-1.4367 H 160 284.13059 l 3.55779,1.4367 c 9.88554,3.99195 16.51153,15.7525 14.62494,25.95798 -1.38944,7.51618 0.78955,5.13595 -65.48202,71.52933 -34.25528,34.31824 -63.39672,63.05301 -64.75875,63.85505 -5.81309,3.42308 -12.74964,4.25691 -18.93908,2.27663 z"
     id="path32" />
</svg>
